# xmcd CD database file
#
# Track frame offsets:
#	182
#	27115
#	45195
#	69235
#	89397
#	104982
#	128492
#	148450
#	166200
#	186990
#	206160
#	222565
#	245122
#	274885
#	297757
#
# Disc length: 4274 seconds
#
# Revision: 2
# Processed by: cddbd v1.4PL0 Copyright (c) Steve Scherf et al.
# Submitted via: CDex 1.40Release
#
DISCID=ee10b00f
DTITLE=Francesco De Gregori - BOOTLEG
DYEAR=1994
DGENRE=Folk-Rock
TTITLE0=Povero me
TTITLE1=300.000.000 di topi
TTITLE2=Miramare
TTITLE3=Caterina
TTITLE4=I muscoli del capitano
TTITLE5=Sangue su sangue
TTITLE6=Adelante! Adelante!
TTITLE7=Stella della strada
TTITLE8=Il bandito e il campione
TTITLE9=Mannaggia alla musica
TTITLE10=A Pa'
TTITLE11=Pentathlon
TTITLE12=Viaggi e miraggi
TTITLE13=Anidride solforosa
TTITLE14=Viva l'Italia
EXTD=YEAR: 1994 ID3G: 81
EXTT0=
EXTT1=
EXTT2=
EXTT3=
EXTT4=
EXTT5=
EXTT6=
EXTT7=
EXTT8=
EXTT9=
EXTT10=
EXTT11=
EXTT12=
EXTT13=
EXTT14=
PLAYORDER=
